<svg aria-hidden="true" style="position: absolute; width: 0; height: 0; overflow: hidden;" version="1.1" xmlns="http://www.w3.org/2000/svg" xmlns:xlink="http://www.w3.org/1999/xlink">
<defs>
<symbol id="icon-logo-2" viewBox="0 0 53 32">
<path d="M6.811 0v2.078c-0.572 0-1.019 0.082-1.34 0.246-0.321 0.157-0.459 0.475-0.415 0.954l0.292 2.786c0.075 0.705-0.003 1.275-0.236 1.709-0.226 0.434-0.575 0.768-1.047 1.001-0.465 0.227-1.016 0.387-1.651 0.482 0.673 0.101 1.242 0.264 1.707 0.491s0.805 0.554 1.019 0.982 0.283 1.001 0.208 1.719l-0.292 2.786c-0.044 0.478 0.094 0.796 0.415 0.954 0.321 0.164 0.767 0.246 1.34 0.246v2.078c-1.736 0-2.956-0.264-3.66-0.793-0.698-0.523-0.981-1.42-0.849-2.692l0.283-2.701c0.050-0.478-0.031-0.853-0.245-1.124-0.208-0.271-0.516-0.46-0.925-0.567-0.409-0.113-0.88-0.17-1.415-0.17v-2.418c0.528 0 0.997-0.054 1.406-0.161 0.409-0.113 0.72-0.305 0.934-0.576s0.296-0.645 0.245-1.124l-0.283-2.682c-0.138-1.297 0.145-2.204 0.849-2.72 0.704-0.523 1.924-0.784 3.66-0.784z"></path>
<path d="M14.987 2.446c1.56 0 2.736 0.604 3.528 1.813 0.799 1.202 1.198 2.88 1.198 5.034 0 2.159-0.399 3.85-1.198 5.071-0.792 1.215-1.968 1.823-3.528 1.823-1.572 0-2.755-0.607-3.547-1.823-0.786-1.221-1.179-2.912-1.179-5.071 0-2.153 0.393-3.831 1.179-5.034 0.792-1.209 1.975-1.813 3.547-1.813zM14.987 4.609c-0.667 0-1.154 0.359-1.462 1.077-0.308 0.711-0.462 1.914-0.462 3.608 0 0.554 0.009 1.048 0.028 1.483 0.019 0.428 0.047 0.809 0.085 1.143l3.189-6.677c-0.151-0.239-0.34-0.403-0.566-0.491-0.22-0.094-0.491-0.142-0.811-0.142zM16.893 9.293c0-0.724-0.016-1.335-0.047-1.832l-3.009 6.224c0.138 0.132 0.302 0.223 0.491 0.274 0.195 0.050 0.415 0.076 0.66 0.076 0.447 0 0.808-0.151 1.085-0.453 0.283-0.302 0.491-0.8 0.623-1.492 0.132-0.699 0.198-1.631 0.198-2.795z"></path>
<path d="M26.305 2.446c1.56 0 2.736 0.604 3.528 1.813 0.799 1.202 1.198 2.88 1.198 5.034 0 2.159-0.399 3.85-1.198 5.071-0.792 1.215-1.968 1.823-3.528 1.823-1.572 0-2.755-0.607-3.547-1.823-0.786-1.221-1.179-2.912-1.179-5.071 0-2.153 0.393-3.831 1.179-5.034 0.792-1.209 1.975-1.813 3.547-1.813zM26.305 4.609c-0.667 0-1.154 0.359-1.462 1.077-0.308 0.711-0.462 1.914-0.462 3.608 0 0.554 0.009 1.048 0.028 1.483 0.019 0.428 0.047 0.809 0.085 1.143l3.189-6.677c-0.151-0.239-0.34-0.403-0.566-0.491-0.22-0.094-0.491-0.142-0.811-0.142zM28.211 9.293c0-0.724-0.016-1.335-0.047-1.832l-3.009 6.224c0.138 0.132 0.302 0.223 0.491 0.274 0.195 0.050 0.415 0.076 0.66 0.076 0.447 0 0.808-0.151 1.085-0.453 0.283-0.302 0.491-0.8 0.623-1.492 0.132-0.699 0.198-1.631 0.198-2.795z"></path>
<path d="M36.944 16.168l-2.83-0.878 4.877-10.265h-5.745v-2.248h8.764v2.021l-5.066 11.37z"></path>
<path d="M45.799 0c1.736 0 2.953 0.261 3.651 0.784 0.704 0.523 0.991 1.423 0.858 2.701l-0.283 2.701c-0.050 0.478 0.031 0.853 0.245 1.124s0.522 0.463 0.924 0.576c0.409 0.107 0.88 0.161 1.415 0.161v2.418c-0.528 0-0.997 0.057-1.406 0.17-0.409 0.107-0.72 0.296-0.934 0.567s-0.296 0.645-0.245 1.124l0.283 2.682c0.145 1.291-0.138 2.197-0.849 2.72-0.704 0.523-1.925 0.784-3.66 0.784v-2.078c0.579 0 1.028-0.082 1.349-0.246 0.321-0.157 0.456-0.475 0.406-0.954l-0.292-2.786c-0.075-0.711 0-1.281 0.226-1.709 0.233-0.434 0.585-0.765 1.057-0.992 0.472-0.233 1.025-0.397 1.66-0.491-0.673-0.101-1.245-0.264-1.717-0.491-0.465-0.227-0.805-0.554-1.019-0.982-0.214-0.434-0.283-1.007-0.208-1.719l0.292-2.786c0.050-0.478-0.088-0.796-0.415-0.954-0.321-0.164-0.767-0.246-1.34-0.246v-2.078z"></path>
<path d="M6.657 22.868c0.525 0 0.947 0.13 1.268 0.391s0.555 0.629 0.702 1.105c0.151 0.476 0.226 1.041 0.226 1.694 0 0.62-0.091 1.173-0.272 1.66-0.181 0.484-0.443 0.865-0.787 1.145-0.343 0.276-0.76 0.414-1.251 0.414-0.585 0-1.060-0.21-1.426-0.629v2.76l-1.789 0.187v-8.528h1.585l0.079 0.674c0.245-0.314 0.513-0.536 0.804-0.669 0.291-0.136 0.577-0.204 0.86-0.204zM6.103 24.188c-0.208 0-0.391 0.062-0.549 0.187s-0.304 0.295-0.436 0.51v2.539c0.125 0.185 0.255 0.321 0.391 0.408 0.14 0.087 0.304 0.13 0.492 0.13 0.317 0 0.564-0.144 0.742-0.431 0.177-0.291 0.266-0.774 0.266-1.451 0-0.499-0.036-0.884-0.108-1.156-0.072-0.276-0.175-0.467-0.311-0.572-0.136-0.11-0.298-0.164-0.487-0.164z"></path>
<path d="M15.18 27.35c0 0.227 0.030 0.391 0.091 0.493 0.064 0.102 0.166 0.179 0.306 0.232l-0.368 1.179c-0.355-0.034-0.655-0.111-0.9-0.232-0.241-0.125-0.432-0.312-0.572-0.561-0.23 0.276-0.524 0.482-0.883 0.618-0.358 0.132-0.724 0.198-1.098 0.198-0.619 0-1.113-0.176-1.483-0.527-0.366-0.355-0.549-0.81-0.549-1.366 0-0.654 0.255-1.158 0.764-1.513 0.513-0.355 1.234-0.533 2.162-0.533h0.809v-0.227c0-0.616-0.396-0.924-1.189-0.924-0.192 0-0.44 0.028-0.741 0.085-0.302 0.053-0.604 0.13-0.906 0.232l-0.413-1.19c0.389-0.147 0.793-0.259 1.211-0.334 0.423-0.076 0.8-0.113 1.132-0.113 0.894 0 1.555 0.183 1.981 0.55 0.43 0.363 0.645 0.888 0.645 1.575v2.357zM12.373 27.996c0.193 0 0.394-0.057 0.606-0.17 0.211-0.117 0.372-0.281 0.481-0.493v-0.975h-0.441c-0.498 0-0.864 0.077-1.098 0.232-0.234 0.151-0.351 0.374-0.351 0.669 0 0.23 0.070 0.412 0.209 0.544 0.143 0.128 0.341 0.193 0.594 0.193z"></path>
<path d="M22.582 23.066l-2.004 6.018h-2.106l-2.026-6.018h1.93l1.172 4.646 1.223-4.646h1.811z"></path>
<path d="M28.761 27.35c0 0.227 0.030 0.391 0.091 0.493 0.064 0.102 0.166 0.179 0.306 0.232l-0.368 1.179c-0.355-0.034-0.655-0.111-0.9-0.232-0.242-0.125-0.432-0.312-0.572-0.561-0.23 0.276-0.524 0.482-0.883 0.618-0.358 0.132-0.724 0.198-1.098 0.198-0.619 0-1.113-0.176-1.483-0.527-0.366-0.355-0.549-0.81-0.549-1.366 0-0.654 0.255-1.158 0.764-1.513 0.513-0.355 1.234-0.533 2.162-0.533h0.809v-0.227c0-0.616-0.396-0.924-1.189-0.924-0.192 0-0.44 0.028-0.742 0.085-0.302 0.053-0.604 0.13-0.906 0.232l-0.413-1.19c0.389-0.147 0.792-0.259 1.211-0.334 0.423-0.076 0.8-0.113 1.132-0.113 0.894 0 1.555 0.183 1.981 0.55 0.43 0.363 0.645 0.888 0.645 1.575v2.357zM25.954 27.996c0.192 0 0.394-0.057 0.606-0.17 0.211-0.117 0.372-0.281 0.481-0.493v-0.975h-0.441c-0.498 0-0.864 0.077-1.098 0.232-0.234 0.151-0.351 0.374-0.351 0.669 0 0.23 0.070 0.412 0.209 0.544 0.143 0.128 0.341 0.193 0.594 0.193z"></path>
<path d="M30.492 29.084v-6.018h1.562l0.125 0.697c0.268-0.302 0.551-0.527 0.849-0.674s0.638-0.221 1.019-0.221c0.513 0 0.917 0.157 1.211 0.47s0.441 0.755 0.441 1.326v4.42h-1.789v-3.904c0-0.37-0.041-0.627-0.125-0.771-0.079-0.147-0.23-0.221-0.453-0.221-0.189 0-0.37 0.060-0.543 0.181-0.17 0.121-0.34 0.289-0.509 0.504v4.21h-1.789z"></path>
<path d="M41.725 22.868c0.426 0 0.741 0.14 0.945 0.419 0.208 0.276 0.311 0.723 0.311 1.343v4.454h-1.534v-4.25c0-0.212-0.021-0.361-0.062-0.448-0.038-0.087-0.117-0.13-0.238-0.13-0.094 0-0.193 0.028-0.294 0.085-0.098 0.053-0.208 0.155-0.328 0.306v4.437h-1.257v-4.25c0-0.212-0.021-0.361-0.062-0.448-0.038-0.087-0.117-0.13-0.238-0.13-0.094 0-0.192 0.028-0.294 0.085-0.098 0.053-0.208 0.155-0.328 0.306v4.437h-1.557v-6.018h1.313l0.119 0.584c0.189-0.257 0.379-0.451 0.572-0.584s0.421-0.198 0.685-0.198c0.226 0 0.419 0.059 0.577 0.176 0.162 0.113 0.277 0.293 0.345 0.538 0.181-0.212 0.381-0.383 0.6-0.516s0.46-0.198 0.725-0.198z"></path>
<path d="M49.41 22.103l0.419 1.315c-0.211 0.083-0.459 0.144-0.741 0.181s-0.613 0.057-0.991 0.057c0.377 0.162 0.664 0.365 0.86 0.606 0.2 0.238 0.3 0.552 0.3 0.941s-0.104 0.737-0.311 1.043c-0.208 0.302-0.502 0.54-0.883 0.714s-0.832 0.261-1.353 0.261c-0.249 0-0.481-0.023-0.696-0.068-0.064 0.034-0.113 0.083-0.147 0.147s-0.051 0.13-0.051 0.198c0 0.094 0.038 0.179 0.113 0.255 0.079 0.076 0.262 0.113 0.549 0.113h0.985c0.468 0 0.872 0.076 1.211 0.227 0.343 0.151 0.609 0.357 0.798 0.618s0.283 0.559 0.283 0.895c0 0.616-0.27 1.101-0.809 1.456s-1.341 0.533-2.406 0.533c-0.77 0-1.366-0.079-1.789-0.238-0.419-0.155-0.711-0.378-0.877-0.669-0.162-0.287-0.243-0.629-0.243-1.026h1.585c0 0.174 0.034 0.316 0.102 0.425 0.072 0.113 0.206 0.197 0.402 0.249 0.2 0.053 0.489 0.079 0.866 0.079 0.381 0 0.672-0.030 0.872-0.091s0.336-0.144 0.408-0.249c0.075-0.102 0.113-0.217 0.113-0.346 0-0.178-0.070-0.321-0.209-0.431s-0.36-0.164-0.662-0.164h-0.957c-0.649 0-1.121-0.119-1.415-0.357-0.294-0.242-0.441-0.523-0.441-0.844 0-0.223 0.058-0.434 0.175-0.635 0.121-0.2 0.289-0.368 0.504-0.504-0.385-0.204-0.66-0.444-0.826-0.72-0.166-0.28-0.249-0.614-0.249-1.003 0-0.453 0.115-0.842 0.345-1.167 0.23-0.329 0.547-0.582 0.951-0.759 0.408-0.178 0.872-0.266 1.392-0.266 0.449 0.008 0.84-0.023 1.172-0.091 0.332-0.072 0.63-0.168 0.894-0.289 0.264-0.125 0.517-0.257 0.758-0.397zM46.631 24.040c-0.283 0-0.508 0.091-0.674 0.272-0.166 0.178-0.249 0.423-0.249 0.737 0 0.332 0.085 0.587 0.255 0.765s0.392 0.266 0.668 0.266c0.611 0 0.917-0.351 0.917-1.054 0-0.657-0.306-0.986-0.917-0.986z"></path>
</symbol>
</defs>
</svg>
